<svg width="512.001" height="512.001" xmlns="http://www.w3.org/2000/svg">
  <!-- pot -->

  <!--label-->
  <g>
    <title>background</title>
    <rect fill="none" id="canvas_background" height="514.001" width="514.001" y="-1" x="-1"/>
  </g>
  <g>
    <title>Layer 1</title>
    <path id="svg_1" fill="#6B7A8F" d="m376.563,486.176l-241.13,0c-14.106,0 -27.406,-5.369 -37.452,-15.115c-44.436,-43.121 -68.908,-100.959 -68.908,-162.86c0,-125.126 101.797,-226.924 226.924,-226.924c7.573,0 13.713,6.141 13.713,13.713c0,7.573 -6.141,13.713 -13.713,13.713c-110.003,0 -199.497,89.494 -199.497,199.497c0,54.419 21.514,105.266 60.581,143.176c4.898,4.754 11.416,7.372 18.351,7.372l241.13,0c6.935,0 13.453,-2.618 18.351,-7.372c39.066,-37.911 60.581,-88.758 60.581,-143.176c0,-11.752 -1.029,-23.527 -3.057,-34.994c-1.321,-7.457 3.657,-14.573 11.113,-15.893c7.452,-1.33 14.573,3.657 15.893,11.113c2.308,13.042 3.476,26.422 3.476,39.772c0,61.901 -24.472,119.738 -68.908,162.86c-10.04,9.749 -23.341,15.118 -37.448,15.118z"/>
    <path id="svg_2" fill="#F7C331" d="m429.903,104.897l-14.804,0c10.278,-4.109 17.549,-14.137 17.549,-25.881l0,-11.597c0,-15.399 -12.483,-27.882 -27.882,-27.882l-297.536,0c-15.399,0 -27.882,12.483 -27.882,27.882l0,11.596c0,11.744 7.271,21.773 17.549,25.881l-14.806,0l-68.378,58.624l10.913,5.688c6.489,3.383 11.733,7.449 16.806,11.381c10.516,8.151 19.598,15.19 38.606,15.19c18.995,0 28.085,-7.038 38.628,-15.199c11.419,-8.841 24.362,-18.862 49.343,-18.862c24.972,0 37.919,10.015 49.369,18.871c10.517,8.15 19.599,15.189 38.603,15.189c18.999,0 28.089,-7.038 38.631,-15.199c11.419,-8.841 24.362,-18.862 49.343,-18.862c24.994,0 37.94,10.022 49.373,18.874c10.525,8.149 19.616,15.186 38.612,15.186c19.017,0 28.099,-7.039 38.664,-15.227c5.069,-3.921 10.307,-7.974 16.77,-11.342l10.916,-5.688l-68.387,-58.623z"/>
    <g stroke="null" id="svg_3">
      <!--top border-->
      <path stroke="null" id="svg_4" fill="#6B7A8F" d="m431.935,209.492c-23.685,0 -36.076,-9.593 -47.006,-18.057c-10.633,-8.231 -20.674,-16.004 -40.977,-16.004c-20.289,0 -30.321,7.766 -40.942,15.989c-10.945,8.472 -23.344,18.072 -47.03,18.072c-23.697,0 -36.08,-9.597 -47.004,-18.063c-10.631,-8.223 -20.681,-15.997 -40.968,-15.997c-20.292,0 -30.325,7.767 -40.946,15.991c-10.942,8.469 -23.342,18.069 -47.024,18.069c-23.702,0 -36.084,-9.597 -47.007,-18.063c-4.813,-3.731 -9.35,-7.248 -14.745,-10.06l-10.912,-5.688c-4.037,-2.104 -6.768,-6.076 -7.286,-10.599c-0.518,-4.524 1.241,-9.008 4.698,-11.972l65.064,-55.78c-2.722,-5.57 -4.213,-11.8 -4.213,-18.313l0,-11.596c0,-22.937 18.659,-41.596 41.594,-41.596l297.537,0c22.936,0 41.594,18.659 41.594,41.596l0,11.596c0,6.514 -1.491,12.745 -4.214,18.316l65.064,55.778c3.457,2.963 5.218,7.451 4.698,11.973c-0.518,4.524 -3.249,8.494 -7.286,10.599l-10.916,5.687c-5.38,2.804 -9.913,6.314 -14.713,10.029c-11.476,8.892 -23.35,18.093 -47.06,18.093zm-87.983,-61.487c29.679,0 45.911,12.564 57.763,21.74c9.924,7.685 15.913,12.32 30.22,12.32c14.325,0 20.323,-4.65 30.263,-12.353c3.605,-2.789 7.533,-5.828 12.058,-8.727l-49.427,-42.373l-9.73,0c-6.574,0 -12.224,-4.665 -13.465,-11.122c-1.242,-6.455 2.271,-12.885 8.375,-15.325c5.422,-2.168 8.926,-7.33 8.926,-13.148l0,-11.596c0,-7.813 -6.356,-14.169 -14.167,-14.169l-297.538,0c-7.811,0 -14.167,6.356 -14.167,14.169l0,11.596c0,5.819 3.504,10.98 8.925,13.148c6.105,2.44 9.619,8.87 8.375,15.326c-1.242,6.455 -6.891,11.12 -13.465,11.12l-9.732,0l-49.428,42.375c4.543,2.91 8.479,5.961 12.086,8.757c9.915,7.686 15.897,12.322 30.214,12.322c14.307,0 20.303,-4.641 30.234,-12.328c11.846,-9.172 28.067,-21.732 57.737,-21.732c29.655,0 45.898,12.563 57.758,21.737c9.919,7.688 15.901,12.323 30.214,12.323c14.31,0 20.306,-4.641 30.237,-12.328c11.848,-9.174 28.069,-21.732 57.734,-21.732z"/>
      <!--line-->
      <path stroke="null" id="svg_5" fill="#6B7A8F" d="m340.774,118.612l-243.877,0c-7.573,0 -13.713,-6.141 -13.713,-13.713s6.141,-13.713 13.713,-13.713l243.877,0c7.573,0 13.714,6.141 13.714,13.713s-6.142,13.713 -13.714,13.713z"/>
    </g>
    <path stroke="null" id="svg_6" fill="#F7C331" d="m311.692315,438.574355l-111.388635,0c-24.441958,0 -44.436499,-19.80647 -44.436499,-44.012545l0,0c0,-24.206943 19.997257,-44.012545 44.436499,-44.012545l111.388635,0c24.440118,0 44.436499,19.80647 44.436499,44.012545l0,0c0.001752,24.206076 -19.995505,44.012545 -44.436499,44.012545z"/>
    <path stroke="null" id="svg_7" fill="#6B7A8F" d="m316.077566,455.271448l-114.93322,0c-32.115395,0 -58.243894,-25.561184 -58.243894,-56.979273s26.128499,-56.979273 58.243894,-56.979273l114.93322,0c32.115395,0 58.243894,25.561184 58.243894,56.979273s-26.128499,56.979273 -58.243894,56.979273zm-114.93322,-89.708623c-18.447846,0 -33.454855,14.681168 -33.454855,32.728466s15.007008,32.728466 33.454855,32.728466l114.93322,0c18.447846,0 33.454855,-14.681168 33.454855,-32.728466s-15.007008,-32.728466 -33.454855,-32.728466l-114.93322,0l0,0z"/>
    <g id="svg_8"/>
    <g id="svg_9"/>
    <g id="svg_10"/>
    <g id="svg_11"/>
    <g id="svg_12"/>
    <g id="svg_13"/>
    <g id="svg_14"/>
    <g id="svg_15"/>
    <g id="svg_16"/>
    <g id="svg_17"/>
    <g id="svg_18"/>
    <g id="svg_19"/>
    <g id="svg_20"/>
    <g id="svg_21"/>
    <g id="svg_22"/>
    <path d="m465.703094,261.195435c0,0 0,0 0,-0.746277c0,-0.746277 -0.362885,-2.1073 -0.746277,-3.731354c-0.342926,-1.452621 -0.342377,-2.756332 -0.746246,-3.731369c-0.85675,-2.06842 0,-2.985092 0,-5.223907c0,-2.985092 0,-3.731369 0,-5.970184c0,-1.492554 0,-2.238815 0,-3.731369c0,-3.731369 -0.403351,-6.756378 -0.746277,-8.209c-0.383392,-1.624069 -0.746277,-2.985092 -1.492554,-5.970184c-0.746277,-2.985092 -1.118683,-5.935333 -1.492554,-11.940353c-0.13913,-2.234482 -0.141998,-3.64296 -1.492523,-5.970184c-0.837585,-1.443298 0.133514,-4.700546 -2.238831,-5.970184c-0.657959,-0.352142 -1.10022,-2.350266 -1.492554,-2.985092c-0.877289,-1.419495 -2.2388,-2.238815 -2.985077,-2.985092c0,0 0,-0.746262 0,-0.746262l0,0.746262l0,0l0,0.746277" id="svg_24" fill-opacity="null" stroke-opacity="null" stroke-width="null" stroke="null" fill="none"/>
    <polyline stroke-linecap="round" id="svg_26" points="55.9994178848973,264.92679101009406 55.9994178848973,264.92679101009406 55.9994178848973,264.92679101009406 " fill-opacity="null" stroke-opacity="null" stroke-width="null" stroke="null" fill="none"/>
    <path id="svg_28" d="m264.209487,241.792339c-41.791268,15.671726 -52.239086,6.716454 -52.268048,5.970189c0.028962,0.746265 -34.29958,-2.985099 -34.328543,-3.731363c0.028963,0.746265 151.522311,-2.238826 151.493353,-2.985091" opacity="0.5" stroke-width="null" fill="none"/>
  </g>
</svg>